<svg xmlns="http://www.w3.org/2000/svg" viewBox="0 0 96 128" role="img" aria-label="Gardener player character">
  <defs>
    <linearGradient id="apron" x1="0" y1="0" x2="0" y2="1">
      <stop offset="0" stop-color="#8fa56b"/>
      <stop offset="1" stop-color="#5c7447"/>
    </linearGradient>
    <linearGradient id="boots" x1="0" y1="0" x2="1" y2="1">
      <stop offset="0" stop-color="#55412f"/>
      <stop offset="1" stop-color="#2f281f"/>
    </linearGradient>
  </defs>
  <ellipse cx="48" cy="116" rx="30" ry="8" fill="#1f261e" opacity="0.22"/>
  <path d="M28 45c-9 11-14 26-12 44 1 12 8 20 19 22 8 2 17 2 26 0 12-2 19-10 20-22 2-18-3-33-13-44z" fill="#344330"/>
  <path d="M31 53h34l8 51c-17 8-34 8-51 0z" fill="url(#apron)"/>
  <path d="M28 49c-12 9-19 22-22 39l15 5c3-16 8-27 17-34z" fill="#3f5138"/>
  <path d="M68 49c12 9 19 22 22 39l-15 5c-3-16-8-27-17-34z" fill="#3f5138"/>
  <path d="M31 21c8-11 25-13 35-3 9 9 9 26 0 35-10 10-27 9-35-2-7-9-7-22 0-30z" fill="#c28d62"/>
  <path d="M26 24c8-18 31-22 46-7-7 5-16 7-28 7-7 0-13 3-18 8z" fill="#4c3527"/>
  <path d="M25 31c2-12 11-22 24-25 11 2 21 8 29 19-15-6-31-6-53 6z" fill="#6b4a2e"/>
  <path d="M34 70c10 6 20 6 30 0" fill="none" stroke="#4b633d" stroke-width="4" stroke-linecap="round"/>
  <path d="M28 105l-5 14h21l1-13zM52 106l1 13h21l-6-14z" fill="url(#boots)"/>
  <path d="M73 90c9-4 17-3 23 4-7 6-15 6-23-4z" fill="#7c9f5b"/>
  <path d="M84 84c5 9 4 17-3 25-6-8-5-16 3-25z" fill="#91b36b"/>
</svg>
