<svg xmlns="http://www.w3.org/2000/svg" viewBox="0 0 1280 800" role="img" aria-label="Hush Arbor roadside nursery yard in early spring">
  <defs>
    <linearGradient id="coolSky" x1="0" y1="0" x2="0" y2="1">
      <stop offset="0" stop-color="#dfe8d5"/>
      <stop offset="1" stop-color="#a9b98f"/>
    </linearGradient>
    <linearGradient id="wetLane" x1="0" y1="0" x2="1" y2="0">
      <stop offset="0" stop-color="#554a3d"/>
      <stop offset="0.55" stop-color="#6a5d4a"/>
      <stop offset="1" stop-color="#4c4439"/>
    </linearGradient>
    <linearGradient id="woodWarm" x1="0" y1="0" x2="1" y2="1">
      <stop offset="0" stop-color="#8f6240"/>
      <stop offset="1" stop-color="#553821"/>
    </linearGradient>
    <linearGradient id="shadeCloth" x1="0" y1="0" x2="1" y2="0">
      <stop offset="0" stop-color="#354b3e"/>
      <stop offset="1" stop-color="#26372f"/>
    </linearGradient>
    <radialGradient id="softLight" cx="0.48" cy="0.18" r="0.88">
      <stop offset="0" stop-color="#f5efd4" stop-opacity="0.45"/>
      <stop offset="0.55" stop-color="#f5efd4" stop-opacity="0.12"/>
      <stop offset="1" stop-color="#f5efd4" stop-opacity="0"/>
    </radialGradient>
  </defs>

  <rect width="1280" height="800" fill="#3f5137"/>
  <path d="M0 0h1280v800H0z" fill="url(#coolSky)" opacity="0.2"/>
  <ellipse cx="640" cy="392" rx="610" ry="340" fill="#50653d"/>
  <path d="M70 116c152-48 326-51 481-27 116 18 224 10 334-13 137-29 251-20 330 31v479c-89 32-198 25-329 11-142-15-279 10-405 38-138 31-288 33-411-7z" fill="#5f7045"/>
  <path d="M95 150c145-38 305-40 455-14 112 19 224 9 333-14 123-26 225-19 302 24v412c-111 27-222 12-336 8-144-5-253 37-392 59-133 21-256 5-362-41z" fill="#66794e" opacity="0.75"/>
  <path d="M0 616c156-13 289-6 401 21 124 29 248 42 380 18 161-30 330-68 499-37v182H0z" fill="url(#wetLane)"/>
  <path d="M0 650c116-14 231-10 344 15 166 37 309 50 470 17 166-34 303-46 466-24v28c-167-20-303-6-466 29-158 34-313 22-475-17-111-26-224-29-339-15z" fill="#2f3b32" opacity="0.28"/>
  <path d="M243 649c92-48 181-85 267-111 81-25 143-42 216-23 75 19 158 47 288 35l42 37c-138 13-230-16-309-37-67-18-127-5-205 21-91 29-181 66-268 112z" fill="#c1b083"/>
  <path d="M294 639c78-38 155-67 233-90 73-22 125-31 191-14 76 19 162 44 273 35" fill="none" stroke="#e1d3a5" stroke-width="8" stroke-linecap="round" opacity="0.45"/>
  <path d="M240 657c92-51 184-88 276-114 83-24 145-35 211-17 78 22 165 49 286 37" fill="none" stroke="#7b704d" stroke-width="5" stroke-linecap="round" opacity="0.36"/>

  <g opacity="0.72">
    <path d="M88 202c37-58 81-86 132-86 49 0 87 31 114 88-40 28-79 40-118 37-45-3-87-16-128-39z" fill="#31452f"/>
    <path d="M996 183c44-63 97-91 157-78 44 9 76 43 96 101-41 25-85 34-131 26-47-8-88-24-122-49z" fill="#304530"/>
    <path d="M80 251c28-24 58-36 89-36 37 0 68 17 94 51-57 27-115 22-183-15z" fill="#475d3c"/>
    <path d="M1015 249c32-23 66-33 102-29 36 5 65 23 89 56-61 22-124 13-191-27z" fill="#455c3c"/>
  </g>
  <g fill="#6f5334" opacity="0.78">
    <path d="M198 210h19l-8 126h-18z"/>
    <path d="M1128 197h20l-5 136h-18z"/>
    <path d="M153 253h14l-5 94h-13z"/>
    <path d="M1090 264h14l-4 88h-13z"/>
  </g>

  <g id="signal-board" transform="translate(285 320)">
    <ellipse cx="0" cy="58" rx="92" ry="21" fill="#2f3428" opacity="0.24"/>
    <path d="M-57-8h18v116h-18zM43-12h18v120H43z" fill="#5a3f27"/>
    <path d="M-88-82c49-10 104-10 159 0 11 2 18 11 17 22l-7 78c-1 9-8 16-17 18-47 9-96 10-150 1-10-2-17-11-16-21l6-80c1-9 7-16 8-18z" fill="#9e8052"/>
    <path d="M-70-59c40-7 86-7 129 0l-5 51c-39 8-82 8-129 1z" fill="#ded4a8"/>
    <path d="M-42-40c22-6 43-5 63 3" fill="none" stroke="#6d5a3f" stroke-width="6" stroke-linecap="round"/>
    <path d="M-52-20c28-6 60-6 95 1" fill="none" stroke="#6d5a3f" stroke-width="5" stroke-linecap="round"/>
    <path d="M53-58c14 14 14 29 1 46-13-17-12-32-1-46z" fill="#758d58"/>
  </g>

  <g id="plant-stand" transform="translate(650 309)">
    <ellipse cx="0" cy="104" rx="180" ry="36" fill="#2f3428" opacity="0.23"/>
    <path d="M-168-86c109-31 222-32 338-2 15 4 24 19 19 34l-8 25c-114-28-232-28-354 1l-8-26c-5-14 0-27 13-32z" fill="#7d9a6b"/>
    <path d="M-166-27c113-28 229-28 348-1l-24 36c-103-21-204-21-304 0z" fill="#58764f"/>
    <path d="M-152 0h304c15 0 27 12 27 27v46H-179V27c0-15 12-27 27-27z" fill="url(#woodWarm)"/>
    <path d="M-171 70h342v35h-342z" fill="#6e482c"/>
    <path d="M-134 103h22v78h-22zM112 103h22v78h-22z" fill="#4e3321"/>
    <g transform="translate(-95 24)">
      <path d="M-46-16h92l11 45H-57z" fill="#60452d"/>
      <path d="M-33-25c15 14 13 31-3 50-13-19-12-35 3-50zM0-31c18 17 17 37-1 60-18-23-17-43 1-60zM33-24c17 17 17 34 1 51-17-19-17-36-1-51z" fill="#446b38"/>
    </g>
    <g transform="translate(31 22)">
      <path d="M-58-14H58l10 45H-68z" fill="#6b4a31"/>
      <circle cx="-35" cy="-19" r="14" fill="#bd7775"/>
      <circle cx="0" cy="-25" r="16" fill="#d9a45f"/>
      <circle cx="36" cy="-18" r="13" fill="#c895bb"/>
      <path d="M-42 0c28-12 56-12 85 1" fill="none" stroke="#47733d" stroke-width="8" stroke-linecap="round"/>
    </g>
  </g>

  <g id="propagation-bench" transform="translate(930 398)">
    <ellipse cx="0" cy="88" rx="140" ry="28" fill="#2f3428" opacity="0.22"/>
    <path d="M-132-81c91-25 180-24 267 3l-23 42c-72-18-148-18-228 2z" fill="url(#shadeCloth)"/>
    <path d="M-108-28h216c13 0 23 10 23 23v52h-262V-5c0-13 10-23 23-23z" fill="#6d472a"/>
    <path d="M-122 43h244v33h-244z" fill="#8b6040"/>
    <path d="M-96 74h19v74h-19zM78 74h19v74H78z" fill="#4e3321"/>
    <g transform="translate(-48 -7)">
      <path d="M-47-14h94l10 38H-57z" fill="#5a402a"/>
      <path d="M-33-19c19 9 19 22 2 38-16-15-17-28-2-38zM0-24c20 13 20 28 0 45-20-17-20-32 0-45zM33-19c17 11 16 24-2 39-15-16-15-29 2-39z" fill="#9db35d"/>
    </g>
    <g transform="translate(58 -8)">
      <path d="M-43-12h86l9 35H-52z" fill="#533b28"/>
      <ellipse cx="-23" cy="-21" rx="13" ry="19" fill="#d9e3c0" opacity="0.76"/>
      <ellipse cx="18" cy="-20" rx="14" ry="20" fill="#d9e3c0" opacity="0.76"/>
      <path d="M-30-3c27-9 54-9 81 0" fill="none" stroke="#6d8e49" stroke-width="7" stroke-linecap="round"/>
    </g>
  </g>

  <g id="ledger-crate" transform="translate(488 520)">
    <ellipse cx="0" cy="62" rx="108" ry="24" fill="#2f3428" opacity="0.23"/>
    <path d="M-78-19h156l20 70H-98z" fill="#87603b"/>
    <path d="M-90-9H90M-70 21H73M-44-18l-11 67M43-18l13 67" fill="none" stroke="#5f3f28" stroke-width="7" stroke-linecap="round"/>
    <path d="M-36-63c26-10 52-10 78 0l16 48c-31-8-62-8-94 0z" fill="#ded0a4"/>
    <path d="M3-67l2 50" stroke="#9a7d54" stroke-width="4"/>
    <path d="M-23-45c12-3 24-3 36 1M-17-31c11-2 22-2 34 1" stroke="#7b6749" stroke-width="4" stroke-linecap="round"/>
  </g>

  <g id="porch-pots">
    <g transform="translate(210 520)">
      <ellipse cx="0" cy="43" rx="54" ry="15" fill="#2f3428" opacity="0.2"/>
      <path d="M-31-2h62l-12 56h-38z" fill="#a75f3c"/>
      <path d="M-25-14c21 14 22 33 2 56-17-24-18-42-2-56zM6-25c25 21 25 44 0 69-25-25-25-48 0-69zM33-10c19 17 18 34-3 51-15-20-14-37 3-51z" fill="#51763f"/>
      <circle cx="10" cy="-8" r="8" fill="#b477aa"/>
    </g>
    <g transform="translate(1110 507)">
      <ellipse cx="0" cy="45" rx="55" ry="15" fill="#2f3428" opacity="0.2"/>
      <path d="M-34-3h68l-13 59h-42z" fill="#a7603d"/>
      <path d="M-31-11c24 17 25 36 2 58-18-24-19-44-2-58zM2-27c28 22 28 47 1 73-27-26-27-51-1-73zM35-11c19 18 18 36-4 54-16-20-14-38 4-54z" fill="#4f7040"/>
      <circle cx="-13" cy="-4" r="7" fill="#e0b45b"/>
    </g>
  </g>

  <g id="small-life" opacity="0.96">
    <path d="M812 459c12-8 23-8 33 1-10 10-21 10-33-1z" fill="#8fae61"/>
    <path d="M831 475c16-9 31-9 45 2-14 11-29 10-45-2z" fill="#6d914f"/>
    <path d="M370 470c12-7 24-6 34 4-12 8-23 7-34-4z" fill="#769953"/>
    <path d="M1020 594c30-9 59-9 88 0" fill="none" stroke="#a78f66" stroke-width="5" stroke-linecap="round" opacity="0.55"/>
    <path d="M128 594c28-8 55-8 82 1" fill="none" stroke="#a78f66" stroke-width="5" stroke-linecap="round" opacity="0.55"/>
  </g>

  <rect width="1280" height="800" fill="url(#softLight)"/>
  <path d="M0 0h1280v800H0z" fill="#243024" opacity="0.08"/>
</svg>
